<svg id="moerae-logo" data-name="moerae-logo" xmlns="http://www.w3.org/2000/svg" viewBox="0 0 512 160"><defs><style>.cls-1{fill:#180030;}.cls-2{fill:#0060f0;}</style></defs><title>画板 2</title><path class="cls-1" d="M187.5,60.06a19.13,19.13,0,0,1,5.64-5.57,13.6,13.6,0,0,1,7.35-2,10.72,10.72,0,0,1,6.68,2.07,13.73,13.73,0,0,1,4.3,6,18.66,18.66,0,0,1,6-6,13.72,13.72,0,0,1,7.28-2.07c4.3,0,7.57,1.26,9.87,3.71s3.49,6.53,3.49,12c0,2.89-.08,5.49-.15,7.72s-.15,4.45-.15,6.68c0,1.85.07,3.78.15,5.94s.15,4.23.3,6.23a15.63,15.63,0,0,0-2.82-.15h-7.28c-1.11,0-2.08.08-2.82.15a98.19,98.19,0,0,0,.74-10.54c.15-4,.15-8.68.15-13.88,0-3.63-.59-6.23-1.78-7.94a5.78,5.78,0,0,0-5.05-2.52,5.6,5.6,0,0,0-3.41,1,6.18,6.18,0,0,0-2.08,2.45,9.57,9.57,0,0,0-1,3.19,24.83,24.83,0,0,0-.22,3.27v6.16c0,3.49.07,6.75.15,9.87s.29,6.09.59,8.91a23.14,23.14,0,0,0-2.82-.15h-7.27a27.43,27.43,0,0,0-2.82.15c.29-2.9.44-5.87.59-8.91s.15-6.38.15-9.87v-5.2A20.51,20.51,0,0,0,200,62.8c-.82-1.85-2.53-2.82-4.9-2.82a5.92,5.92,0,0,0-5.64,3.34c-1.19,2.23-1.78,5.35-1.78,9.28V76c0,3.49.07,6.76.15,9.87s.29,6.09.59,8.91a15.58,15.58,0,0,0-2.82-.15h-7.28c-1.11,0-2,.08-2.82.15.3-2.89.45-5.86.6-8.91s.15-6.38.15-9.87V72.6c0-3.49-.08-6.76-.15-9.8s-.3-6.16-.6-9.2c1,.15,2.08.22,3.05.3s2,.14,3,.14,2.08-.07,3-.14,2.08-.15,3.2-.3l-.38,6.46Z"/><path class="cls-1" d="M245.24,75.42a25.85,25.85,0,0,1,1.78-10,20.67,20.67,0,0,1,4.68-7.13,18.43,18.43,0,0,1,6.75-4.3,21.94,21.94,0,0,1,7.87-1.41c6.68,0,11.88,1.85,15.51,5.64s5.5,8.91,5.5,15.36A27,27,0,0,1,285.77,83a20.11,20.11,0,0,1-4.31,7.13,17.9,17.9,0,0,1-6.68,4.45,24.25,24.25,0,0,1-8.46,1.48,28.57,28.57,0,0,1-7.57-1A18.19,18.19,0,0,1,252,91.53a17.57,17.57,0,0,1-4.83-6.39A22.73,22.73,0,0,1,245.24,75.42Zm29.39-3.19c0-5-.59-8.91-1.85-11.73a6.46,6.46,0,0,0-6.24-4.16c-2.59,0-4.67,1.56-6.23,4.61S258,68.89,258,75.42a48.45,48.45,0,0,0,.44,6.68,20.29,20.29,0,0,0,1.41,5.34,9.29,9.29,0,0,0,2.6,3.57,5.92,5.92,0,0,0,4,1.26C271.89,92.42,274.63,85.66,274.63,72.23Z"/><path class="cls-1" d="M305.66,74.38a29.51,29.51,0,0,0,.67,6.46A17.13,17.13,0,0,0,308.4,86,10.08,10.08,0,0,0,312,89.45a10.55,10.55,0,0,0,5.12,1.26,15.78,15.78,0,0,0,10.54-3.86l1,.74-1.85,4.83A16.47,16.47,0,0,1,321.76,95a25.36,25.36,0,0,1-7.86,1A24.92,24.92,0,0,1,306,94.79,17.57,17.57,0,0,1,299.28,91a18.37,18.37,0,0,1-4.53-6.76A25.44,25.44,0,0,1,293,74.53a29.25,29.25,0,0,1,1.49-9.72A17.88,17.88,0,0,1,298.68,58,16.19,16.19,0,0,1,305,53.9a22.66,22.66,0,0,1,7.94-1.34c5.64,0,10,1.63,13,5s4.53,8,4.53,14.1v1.79a3,3,0,0,1-.08,1H305.66Zm13.21-3.86a36.56,36.56,0,0,0-1.56-10.32c-1-2.59-2.52-3.86-4.75-3.86a4.54,4.54,0,0,0-3.19,1.27,9.18,9.18,0,0,0-2.08,3.26,25.55,25.55,0,0,0-1.19,4.53,39.12,39.12,0,0,0-.44,5h13.21Z"/><path class="cls-1" d="M424.86,74.38a29.51,29.51,0,0,0,.67,6.46A17.13,17.13,0,0,0,427.6,86a10.08,10.08,0,0,0,3.64,3.42,10.55,10.55,0,0,0,5.12,1.26,15.78,15.78,0,0,0,10.54-3.86l1,.74-1.85,4.83A16.47,16.47,0,0,1,441,95a25.36,25.36,0,0,1-7.86,1,25,25,0,0,1-8-1.19A17.65,17.65,0,0,1,418.47,91,18.47,18.47,0,0,1,414,84.25a25.44,25.44,0,0,1-1.71-9.72,29.52,29.52,0,0,1,1.48-9.72A18,18,0,0,1,417.88,58a16.19,16.19,0,0,1,6.31-4.08,22.66,22.66,0,0,1,7.94-1.34c5.64,0,10,1.63,13,5s4.53,8,4.53,14.1v1.79a3,3,0,0,1-.08,1H424.86Zm13.21-3.86a36.56,36.56,0,0,0-1.56-10.32c-1-2.59-2.52-3.86-4.75-3.86a4.54,4.54,0,0,0-3.19,1.27,9.18,9.18,0,0,0-2.08,3.26,25.55,25.55,0,0,0-1.19,4.53,39.12,39.12,0,0,0-.44,5h13.21Z"/><path class="cls-1" d="M349.89,64.29c1.49-3.94,3.27-6.83,5.42-8.69a11,11,0,0,1,7.57-2.82,2.19,2.19,0,0,1,.75.08c.22,0,.44.07.66.07-.15.89-.29,1.78-.37,2.75s-.15,2.15-.15,3.41v4.23a9.31,9.31,0,0,0,.08,1.49l-.74.66a12.33,12.33,0,0,0-1.93-.89,8.62,8.62,0,0,0-2.45-.37,7.59,7.59,0,0,0-6.09,2.53,8.82,8.82,0,0,0-2.23,5.93v3.42c0,3.49.08,6.75.15,9.87s.3,6.09.6,8.91a15.63,15.63,0,0,0-2.82-.15h-7.28a27.75,27.75,0,0,0-2.82.15c.3-2.9.45-5.87.6-8.91s.14-6.38.14-9.87V72.67c0-3.49-.07-6.75-.14-9.79s-.3-6.16-.6-9.21c1,.15,1.93.23,3,.3s2,.15,3,.15,1.93-.08,3-.15,2-.15,3-.3l-.23,10.47Z"/><path class="cls-1" d="M370.31,58.5A27.15,27.15,0,0,1,378.1,54a23.48,23.48,0,0,1,8.31-1.55,24.12,24.12,0,0,1,6.31.74,13.46,13.46,0,0,1,5,2.45A10.53,10.53,0,0,1,401,60a16.78,16.78,0,0,1,1.19,6.46c0,3.64-.08,7-.15,10.17s-.15,6.23-.15,9.27a12,12,0,0,0,.3,3.2,5,5,0,0,0,.89,1.78,2.75,2.75,0,0,0,1.56.74,10.73,10.73,0,0,0,2.3.15v2.08q-2.46,1-4.23,1.56a11.92,11.92,0,0,1-3.72.51,7.82,7.82,0,0,1-5.12-1.55,9.35,9.35,0,0,1-3-4.46,15.91,15.91,0,0,1-4.6,4.38,12,12,0,0,1-6.53,1.63,15.53,15.53,0,0,1-5.57-.89,9.8,9.8,0,0,1-3.78-2.45,9.25,9.25,0,0,1-2.15-3.63,13.38,13.38,0,0,1,.22-9,9.8,9.8,0,0,1,2.6-3.49,15.08,15.08,0,0,1,4-2.45,38.06,38.06,0,0,1,5.19-1.71c2.38-.59,4.31-1,5.72-1.48a17.66,17.66,0,0,0,3.11-1.26,3.41,3.41,0,0,0,1.34-1.41,4.71,4.71,0,0,0,.3-1.86,7.13,7.13,0,0,0-1-3.71c-1.49-2.45-3.86-3.71-7.2-3.71a13.64,13.64,0,0,0-3,.37,15,15,0,0,0-3,1,21.51,21.51,0,0,0-2.6,1.48,7,7,0,0,0-1.78,1.78h-.59Zm20.33,23.38c0-2.45,0-4.31.08-5.64s.07-2.45.07-3.42A22.27,22.27,0,0,1,387,74.53a18.44,18.44,0,0,0-3.72,1.63,8.62,8.62,0,0,0-2.74,2.67,9.24,9.24,0,0,0-1,5,7.47,7.47,0,0,0,1.33,4.82,4.39,4.39,0,0,0,3.57,1.71,5.81,5.81,0,0,0,4.6-2.15A10.68,10.68,0,0,0,390.64,81.88Z"/><path class="cls-2" d="M111.94,28.66v77.86a1.23,1.23,0,0,0,1.19,1.26h.07c21.45-.67,39.34-18.41,39.34-40.15S134.65,28.14,113.2,27.47a1.12,1.12,0,0,0-1.26,1.19Z"/><path class="cls-1" d="M58.35,135V70.52A46.64,46.64,0,0,1,67.78,42C73.64,34.3,82.7,27.32,96.43,27.4a1.41,1.41,0,0,1,1.41,1.41h0V95.16s2.23,36.3-38.74,40.53a.65.65,0,0,1-.75-.67Z"/></svg>