<svg id="moerae" xmlns="http://www.w3.org/2000/svg" viewBox="0 0 361.52 421.07"><defs><style>.cls-1,.cls-10{fill:#030a10;}.cls-2{fill:#fefefe;}.cls-3{fill:#fafafa;}.cls-4,.cls-9{fill:#fcfeff;}.cls-5{font-size:12px;}.cls-10,.cls-13,.cls-5,.cls-7,.cls-9{font-family:Optima-Regular, Optima;}.cls-6{letter-spacing:-0.01em;}.cls-10,.cls-13,.cls-7,.cls-9{font-size:8px;}.cls-13,.cls-8{letter-spacing:-0.02em;}.cls-11{letter-spacing:-0.05em;}.cls-12{letter-spacing:-0.06em;}.cls-14{letter-spacing:0em;}.cls-15{letter-spacing:-0.02em;}.cls-16{fill:#acacce;}.cls-17{fill:#7878a8;}.cls-18{letter-spacing:-0.03em;}.cls-19{letter-spacing:-0.04em;}.cls-20{letter-spacing:-0.03em;}.cls-21{fill:#47477b;}.cls-22{fill:#abbcce;}.cls-23{fill:#7890a8;}.cls-24{fill:#415b75;}.cls-25{fill:#e57373;}.cls-26{fill:#f44336;}.cls-27{fill:#d32f2f;}.cls-28{fill:#8affa0;}.cls-29{fill:#00c060;}.cls-30{letter-spacing:-0.05em;}.cls-31{fill:#008b37;}.cls-32,.cls-33,.cls-34{fill:#001020;}.cls-33{fill-opacity:0.54;}.cls-34{fill-opacity:0.38;}</style></defs><title>logo-palette</title><rect class="cls-1" x="138.32" y="59.03" width="36.2" height="36.2"/><rect class="cls-2" x="138.6" y="111.14" width="36.2" height="36.2"/><rect class="cls-3" x="188.76" y="111.14" width="36.2" height="36.2"/><rect class="cls-4" x="189.03" y="59.03" width="36.2" height="36.2"/><text class="cls-5" transform="translate(247.75 17.71)">moe<tspan class="cls-6" x="22.67" y="0">r</tspan><tspan x="26.52" y="0">ae palette</tspan></text><text class="cls-7" transform="translate(138.6 59.03)">bla<tspan class="cls-8" x="10.67" y="0">c</tspan><tspan x="14.53" y="0">k</tspan></text><text class="cls-9" transform="translate(138.6 95.23)">#030A10</text><text class="cls-10" transform="translate(189.03 95.23)">#FCFEFF</text><text class="cls-10" transform="translate(189.03 147.34)">#<tspan class="cls-11" x="4.45" y="0">F</tspan><tspan x="8.01" y="0">A</tspan><tspan class="cls-12" x="13.34" y="0">F</tspan><tspan x="16.9" y="0">A</tspan><tspan class="cls-11" x="22.24" y="0">F</tspan><tspan x="25.8" y="0">A</tspan></text><text class="cls-10" transform="translate(138.6 147.34)">#FEFEFE</text><text class="cls-13" transform="translate(189.03 59.03)">w<tspan class="cls-14" x="6.08" y="0">hite</tspan></text><text class="cls-7" transform="translate(138.32 111.14)">paper</text><text class="cls-7" transform="translate(188.76 111.14)">default</text><text class="cls-5" transform="translate(56.34 111.14)">ba<tspan class="cls-15" x="12.67" y="0">c</tspan><tspan x="18.46" y="0">kground</tspan></text><rect class="cls-16" x="137.62" y="163.26" width="36.2" height="36.2"/><rect class="cls-17" x="187.78" y="163.26" width="36.2" height="36.2"/><text class="cls-10" transform="translate(188.05 199.46)">#7878A8</text><text class="cls-10" transform="translate(137.62 199.46)">#<tspan class="cls-18" x="4.45" y="0">A</tspan><tspan class="cls-19" x="9.54" y="0">C</tspan><tspan class="cls-20" x="14.52" y="0">A</tspan><tspan x="19.62" y="0">CCE</tspan></text><text class="cls-7" transform="translate(137.35 163.26)">light</text><text class="cls-7" transform="translate(187.78 163.26)">main</text><rect class="cls-21" x="237.93" y="163.26" width="36.2" height="36.2"/><text class="cls-9" transform="translate(238.21 199.46)">#47477B</text><text class="cls-7" transform="translate(237.93 163.26)">dark</text><text class="cls-5" transform="translate(76.51 163.26)">primary</text><rect class="cls-22" x="137.62" y="215.38" width="36.2" height="36.2"/><rect class="cls-23" x="187.78" y="215.38" width="36.2" height="36.2"/><text class="cls-10" transform="translate(188.05 251.58)">#7890A8</text><text class="cls-10" transform="translate(137.62 251.58)">#ABBCCE</text><text class="cls-7" transform="translate(137.35 215.38)">light</text><text class="cls-7" transform="translate(187.78 215.38)">main</text><rect class="cls-24" x="237.93" y="215.38" width="36.2" height="36.2"/><text class="cls-9" transform="translate(238.21 251.58)">#415B75</text><text class="cls-7" transform="translate(237.93 215.38)">dark</text><text class="cls-5" transform="translate(63.82 215.38)">secondary</text><rect class="cls-25" x="137.62" y="267.5" width="36.2" height="36.2"/><rect class="cls-26" x="187.78" y="267.5" width="36.2" height="36.2"/><text class="cls-10" transform="translate(188.05 303.7)">#F44336</text><text class="cls-10" transform="translate(137.62 303.7)">#E57373</text><text class="cls-7" transform="translate(137.35 267.5)">light</text><text class="cls-7" transform="translate(187.78 267.5)">main</text><rect class="cls-27" x="237.93" y="267.5" width="36.2" height="36.2"/><text class="cls-9" transform="translate(238.21 303.7)">#D32F2F</text><text class="cls-7" transform="translate(237.93 267.5)">dark</text><text class="cls-5" transform="translate(91.84 267.5)">error</text><rect class="cls-28" x="137.62" y="318.86" width="36.2" height="36.2"/><rect class="cls-29" x="187.78" y="318.86" width="36.2" height="36.2"/><text class="cls-10" transform="translate(188.05 355.06)">#00C060</text><text class="cls-10" transform="translate(137.62 355.06)">#8AF<tspan class="cls-30" x="18.23" y="0">F</tspan><tspan x="21.79" y="0">A0</tspan></text><text class="cls-7" transform="translate(137.35 318.86)">light</text><text class="cls-7" transform="translate(187.78 318.86)">main</text><rect class="cls-31" x="237.93" y="318.86" width="36.2" height="36.2"/><text class="cls-9" transform="translate(238.21 355.06)">#008B37</text><text class="cls-7" transform="translate(237.93 318.86)">dark</text><text class="cls-5" transform="translate(77.83 318.86)">success</text><rect class="cls-32" x="137.62" y="368.16" width="36.2" height="36.2"/><rect class="cls-33" x="187.78" y="368.16" width="36.2" height="36.2"/><text class="cls-9" transform="translate(188.05 404.36)">#001020.54</text><text class="cls-9" transform="translate(137.62 404.36)">#001020</text><text class="cls-7" transform="translate(137.35 368.16)">primary</text><text class="cls-7" transform="translate(187.78 368.16)">secondary</text><rect class="cls-34" x="237.93" y="368.16" width="36.2" height="36.2"/><text class="cls-9" transform="translate(238.21 404.36)">#001020.38</text><text class="cls-7" transform="translate(237.93 368.16)">disabled</text><rect class="cls-34" x="288.09" y="368.16" width="36.2" height="36.2"/><text class="cls-9" transform="translate(288.36 404.36)">#001020.38</text><text class="cls-7" transform="translate(288.09 368.16)">hint</text><text class="cls-5" transform="translate(97.83 368.16)">text</text></svg>