<svg id="moerae" xmlns="http://www.w3.org/2000/svg" viewBox="0 0 512 160"><defs><style>.cls-1{fill:#d32f2f;}</style></defs><title>logo-highlight</title><path class="cls-1" d="M431.7,56.3a4.22,4.22,0,0,0-3.2,1.3,8.52,8.52,0,0,0-2.1,3.3,26.74,26.74,0,0,0-1.2,4.5,42.1,42.1,0,0,0-.4,5l13.3.1a34.21,34.21,0,0,0-1.6-10.3C435.5,57.6,434,56.3,431.7,56.3Z"/><path class="cls-1" d="M383.3,76.2a8.7,8.7,0,0,0-2.7,2.7,9.6,9.6,0,0,0-1,5,7.24,7.24,0,0,0,1.3,4.8,4.46,4.46,0,0,0,3.6,1.7,5.55,5.55,0,0,0,4.6-2.2,11.93,11.93,0,0,0,1.5-6.3c0-2.4,0-4.3.1-5.6s.1-2.4.1-3.4a16.31,16.31,0,0,1-3.8,1.7A20.64,20.64,0,0,0,383.3,76.2Z"/><path class="cls-1" d="M266.5,56.3c-2.6,0-4.7,1.6-6.2,4.6S258,68.8,258,75.4a47.33,47.33,0,0,0,.4,6.7,17.71,17.71,0,0,0,1.4,5.3,9.84,9.84,0,0,0,2.6,3.6,5.84,5.84,0,0,0,4,1.3c5.5.1,8.2-6.7,8.2-20.1,0-5-.6-8.9-1.9-11.7S269.4,56.3,266.5,56.3Z"/><path class="cls-1" d="M312.5,56.3a4.22,4.22,0,0,0-3.2,1.3,8.52,8.52,0,0,0-2.1,3.3,26.74,26.74,0,0,0-1.2,4.5,42.1,42.1,0,0,0-.4,5l13.3.1a34.21,34.21,0,0,0-1.6-10.3C316.3,57.6,314.8,56.3,312.5,56.3Z"/><path class="cls-1" d="M0,0V160H512V0ZM59,135.7a.75.75,0,0,1-.7-.7V70.5a47,47,0,0,1,9.4-28.6c5.9-7.6,14.9-14.6,28.6-14.5a1.43,1.43,0,0,1,1.4,1.4V95.2S99.9,131.5,59,135.7Zm54.2-27.9h-.1a1.24,1.24,0,0,1-1.2-1.3V28.6a1.24,1.24,0,0,1,1.3-1.2c21.4.7,39.3,18.5,39.3,40.2S134.6,107.1,113.2,107.8ZM235.5,94.5h-7.2c-1.1,0-2.1.1-2.8.1a79,79,0,0,0,.7-10.5c.1-4,.1-8.7.1-13.9,0-3.6-.6-6.2-1.8-7.9a5.78,5.78,0,0,0-5-2.5,5.48,5.48,0,0,0-3.4,1,6.11,6.11,0,0,0-2.1,2.4,9.18,9.18,0,0,0-1,3.2c-.1,1.1-.2,2.2-.2,3.3v6.2c0,3.5.1,6.8.1,9.9a83,83,0,0,0,.6,8.9c-.7-.1-2.8-.1-2.8-.1h-7.2c-1.1,0-2,.1-2.8.1.3-2.9.4-5.9.6-8.9s.1-6.4.1-9.9V70.7c0-3.4-.4-6.1-1.3-7.9s-2.5-2.8-4.9-2.8a5.8,5.8,0,0,0-5.6,3.3q-1.8,3.3-1.8,9.3V76c0,3.5.1,6.8.1,9.9s.3,6.1.6,8.9a22.67,22.67,0,0,0-2.8-.1h-7.2c-1.1,0-2,.1-2.8.1.3-2.9.4-5.9.6-8.9s.1-6.4.1-9.9V72.6c0-3.5-.1-6.8-.1-9.8s-.3-6.2-.6-9.2c1,.1,2.1.2,3,.3s2,.1,3,.1,2.1-.1,3-.1,2.1-.1,3.2-.3l-.4,6.4a19.89,19.89,0,0,1,5.6-5.6,14,14,0,0,1,7.3-2,10.92,10.92,0,0,1,6.7,2.1,12.94,12.94,0,0,1,4.3,6,18.08,18.08,0,0,1,6-6,14,14,0,0,1,7.3-2.1c4.3,0,7.6,1.3,9.9,3.7s3.5,6.5,3.5,12c0,2.9-.1,5.5-.1,7.7s-.1,4.5-.1,6.7c0,1.9.1,3.8.1,5.9s.1,4.2.3,6.2A22.67,22.67,0,0,0,235.5,94.5ZM285.8,83a18.8,18.8,0,0,1-4.3,7.1,19.3,19.3,0,0,1-6.7,4.5,23.36,23.36,0,0,1-8.5,1.5,32.33,32.33,0,0,1-7.6-1,20,20,0,0,1-6.8-3.5,17.42,17.42,0,0,1-4.8-6.4,24.11,24.11,0,0,1-1.9-9.8,25.17,25.17,0,0,1,1.8-10A19.76,19.76,0,0,1,258.5,54a21.24,21.24,0,0,1,7.9-1.4c6.7,0,11.9,1.9,15.5,5.6s5.5,8.9,5.5,15.4A25.4,25.4,0,0,1,285.8,83Zm44.6-9.5a2.24,2.24,0,0,1-.1,1l-24.6-.1a27,27,0,0,0,.7,6.5,16.21,16.21,0,0,0,2.1,5.2,10.57,10.57,0,0,0,3.6,3.4,10.72,10.72,0,0,0,5.1,1.3,15.72,15.72,0,0,0,10.5-3.9l1,.7-1.9,4.8a17.45,17.45,0,0,1-5.1,2.6,24.49,24.49,0,0,1-7.9,1,25.15,25.15,0,0,1-7.9-1.2,17.18,17.18,0,0,1-6.7-3.8,18.39,18.39,0,0,1-4.5-6.8,25.88,25.88,0,0,1-1.7-9.7,28.24,28.24,0,0,1,1.5-9.7,18.66,18.66,0,0,1,4.2-6.8,16.38,16.38,0,0,1,6.3-4.1,22.2,22.2,0,0,1,7.9-1.3c5.6,0,10,1.6,13,5s4.5,8,4.5,14.1Zm33.5-17.8c-.1,1-.1,2.2-.1,3.4v4.2a7.57,7.57,0,0,0,.1,1.5l-.7.7a11.08,11.08,0,0,0-1.9-.9,9.27,9.27,0,0,0-2.4-.4,7.64,7.64,0,0,0-6.1,2.5,8.66,8.66,0,0,0-2.2,5.9V76c0,3.5.1,6.8.1,9.9s.3,6.1.6,8.9a22.67,22.67,0,0,0-2.8-.1h-7.2c-1.1,0-2,.1-2.8.1.3-2.9.4-5.9.6-8.9s.1-6.4.1-9.9V72.6c0-3.5-.1-6.8-.1-9.8s-.3-6.2-.6-9.2l3,.3c1,.1,2,.1,3,.1s1.9-.1,3-.1,2-.1,3-.3l-.18,9.68a21.28,21.28,0,0,1,5-7.68,10.83,10.83,0,0,1,7.6-2.8,1.48,1.48,0,0,1,.7.1c.2,0,.4.1.7.1C364.2,53.9,364,54.8,363.9,55.7Zm43.2,38c-1.6.7-3,1.2-4.2,1.6a11.05,11.05,0,0,1-3.7.5,7.26,7.26,0,0,1-5.1-1.6,9.41,9.41,0,0,1-3-4.5,14.79,14.79,0,0,1-4.6,4.4,12.06,12.06,0,0,1-6.5,1.6,15.66,15.66,0,0,1-5.6-.9,10.32,10.32,0,0,1-3.8-2.4,9.46,9.46,0,0,1-2.2-3.6,14.1,14.1,0,0,1-.7-4.1,12.25,12.25,0,0,1,.9-4.9,11,11,0,0,1,2.6-3.5,12.18,12.18,0,0,1,4-2.4,35.23,35.23,0,0,1,5.2-1.7c2.4-.6,4.3-1,5.7-1.5a13.68,13.68,0,0,0,3.1-1.3,2.85,2.85,0,0,0,1.3-1.4,5,5,0,0,0,.3-1.9,7.47,7.47,0,0,0-8.2-7.4,10.32,10.32,0,0,0-3,.4c-1,.3-2,.6-3,1a16.12,16.12,0,0,0-2.6,1.5,7.69,7.69,0,0,0-1.8,1.8h-.6l-1.3-4.9a30.44,30.44,0,0,1,7.8-4.5,24.43,24.43,0,0,1,8.3-1.6,24.81,24.81,0,0,1,6.3.7,13.67,13.67,0,0,1,5,2.4,11,11,0,0,1,3.3,4.3,17.53,17.53,0,0,1,1.2,6.5c0,3.6-.1,7.1-.1,10.2s-.1,6.2-.1,9.3a13.88,13.88,0,0,0,.3,3.2,4.35,4.35,0,0,0,.9,1.8,2.36,2.36,0,0,0,1.6.7,16.22,16.22,0,0,0,2.3.1Zm42.5-20.2a2.24,2.24,0,0,1-.1,1l-24.6-.1a27,27,0,0,0,.7,6.5,16.21,16.21,0,0,0,2.1,5.2,10.57,10.57,0,0,0,3.6,3.4,10.72,10.72,0,0,0,5.1,1.3,15.72,15.72,0,0,0,10.5-3.9l1,.7L446,92.4a17.45,17.45,0,0,1-5.1,2.6,24.49,24.49,0,0,1-7.9,1,25.15,25.15,0,0,1-7.9-1.2,17.18,17.18,0,0,1-6.7-3.8,18.39,18.39,0,0,1-4.5-6.8,25.88,25.88,0,0,1-1.7-9.7,28.24,28.24,0,0,1,1.5-9.7,18.66,18.66,0,0,1,4.2-6.8,16.38,16.38,0,0,1,6.3-4.1,22.2,22.2,0,0,1,7.9-1.3c5.6,0,10,1.6,13,5s4.5,8,4.5,14.1Z"/></svg>