<svg id="moerae" xmlns="http://www.w3.org/2000/svg" viewBox="0 0 361.52 606.1"><defs><style>.cls-1{fill:#f4f0f4;}.cls-11,.cls-2,.cls-47,.cls-51{fill:#030a10;}.cls-3{fill:#fefefe;}.cls-4{fill:#f6f6f6;}.cls-10,.cls-48,.cls-5{fill:#fcfeff;}.cls-6{font-size:14px;}.cls-10,.cls-11,.cls-15,.cls-48,.cls-6,.cls-8{font-family:Optima-Regular, Optima;}.cls-7{letter-spacing:-0.06em;}.cls-10,.cls-11,.cls-8{font-size:8px;}.cls-9{letter-spacing:-0.03em;}.cls-12{letter-spacing:-0.05em;}.cls-13{letter-spacing:-0.05em;}.cls-14{letter-spacing:-0.09em;}.cls-15{font-size:12px;}.cls-16{letter-spacing:-0.04em;}.cls-17{letter-spacing:-0.03em;}.cls-18{letter-spacing:-0.05em;}.cls-19{letter-spacing:0em;}.cls-20{letter-spacing:-0.09em;}.cls-21{fill:#7c7ca3;}.cls-22{fill:#3f3d56;}.cls-23{letter-spacing:-0.05em;}.cls-24{fill:#303040;}.cls-25{letter-spacing:0em;}.cls-26{fill:#6eb5cb;}.cls-27{fill:#0e84a8;}.cls-28{fill:#074254;}.cls-29{letter-spacing:-0.06em;}.cls-30{fill:#ea8f8f;}.cls-31{fill:#d32f2f;}.cls-32{fill:#9e2323;}.cls-33{fill:#99d1af;}.cls-34{fill:#33a25f;}.cls-35{fill:#006829;}.cls-36{fill:#7fafff;}.cls-37{fill:#2979ff;}.cls-38{fill:#1f5bbf;}.cls-39{fill:#fdba66;}.cls-40{fill:#fb8c00;}.cls-41{fill:#bc6900;}.cls-42{letter-spacing:-0.05em;}.cls-43{fill:#f4e49c;}.cls-44{fill:#e9c939;}.cls-45{fill:#aa8c06;}.cls-46{letter-spacing:-0.02em;}.cls-47{opacity:0.45;}.cls-48{font-size:7px;}.cls-49{letter-spacing:-0.04em;}.cls-50{letter-spacing:-0.06em;}.cls-51{opacity:0.32;}.cls-52{fill:#fff;}</style></defs><title>moerae-palette</title><rect class="cls-1" width="361.52" height="606.1"/><rect class="cls-2" x="138.32" y="59.03" width="36.2" height="36.2"/><rect class="cls-3" x="138.6" y="111.14" width="36.2" height="36.2"/><rect class="cls-4" x="188.76" y="111.14" width="36.2" height="36.2"/><rect class="cls-5" x="189.03" y="59.03" width="36.2" height="36.2"/><text class="cls-6" transform="translate(19.38 22.33)"><tspan class="cls-7">P</tspan><tspan x="7.01" y="0">ALETTE</tspan></text><text class="cls-8" transform="translate(138.6 59.03)">BL<tspan class="cls-9" x="8.89" y="0">A</tspan><tspan x="13.98" y="0">CK</tspan></text><text class="cls-10" transform="translate(138.6 95.23)">#030A10</text><text class="cls-11" transform="translate(189.03 95.23)">#FCFEFF</text><text class="cls-11" transform="translate(189.03 147.34)">#F6F6F6</text><text class="cls-11" transform="translate(138.6 147.34)">#FEFEFE</text><text class="cls-8" transform="translate(189.03 59.03)">WHITE</text><text class="cls-8" transform="translate(138.32 111.14)"><tspan class="cls-12">P</tspan><tspan x="4.01" y="0">APER</tspan></text><text class="cls-8" transform="translate(188.76 111.14)">DE<tspan class="cls-13" x="10.22" y="0">F</tspan><tspan class="cls-9" x="13.78" y="0">A</tspan><tspan x="18.88" y="0">U</tspan><tspan class="cls-14" x="25.1" y="0">L</tspan><tspan x="28.37" y="0">T</tspan></text><text class="cls-15" transform="translate(32.94 111.14)"><tspan class="cls-16">B</tspan><tspan class="cls-17" x="6.89" y="0">A</tspan><tspan x="14.53" y="0">CKGROUND</tspan></text><text class="cls-15" transform="translate(68.25 59.03)">DE<tspan class="cls-18" x="15.34" y="0">F</tspan><tspan class="cls-9" x="20.68" y="0">A</tspan><tspan class="cls-19" x="28.32" y="0">U</tspan><tspan class="cls-20" x="37.66" y="0">L</tspan><tspan x="42.55" y="0">T</tspan></text><rect class="cls-21" x="137.62" y="163.26" width="36.2" height="36.2"/><rect class="cls-22" x="187.78" y="163.26" width="36.2" height="36.2"/><text class="cls-10" transform="translate(188.05 199.46)">#3F3D56</text><text class="cls-10" transform="translate(137.62 199.46)">#7C7<tspan class="cls-23" x="18.68" y="0">C</tspan><tspan x="23.66" y="0">A3</tspan></text><text class="cls-8" transform="translate(137.35 163.26)">LIGHT</text><text class="cls-8" transform="translate(187.78 163.26)">MAIN</text><rect class="cls-24" x="237.93" y="163.26" width="36.2" height="36.2"/><text class="cls-10" transform="translate(238.21 199.46)">#38384D</text><text class="cls-8" transform="translate(237.93 163.26)"><tspan class="cls-13">D</tspan><tspan x="5.78" y="0">ARK</tspan></text><text class="cls-15" transform="translate(66.27 163.26)">PRIMA<tspan class="cls-16" x="36.01" y="0">R</tspan><tspan class="cls-25" x="42.9" y="0">Y</tspan></text><rect class="cls-26" x="137.62" y="215.38" width="36.2" height="36.2"/><rect class="cls-27" x="187.78" y="215.38" width="36.2" height="36.2"/><text class="cls-10" transform="translate(188.05 251.58)">#0E84A8</text><text class="cls-10" transform="translate(137.62 251.58)">#6EB5CB</text><text class="cls-8" transform="translate(137.35 215.38)">LIGHT</text><text class="cls-8" transform="translate(187.78 215.38)">MAIN</text><rect class="cls-28" x="237.93" y="215.38" width="36.2" height="36.2"/><text class="cls-10" transform="translate(238.21 251.58)">#074254</text><text class="cls-8" transform="translate(237.93 215.38)"><tspan class="cls-13">D</tspan><tspan x="5.78" y="0">ARK</tspan></text><text class="cls-15" transform="translate(46.27 215.38)">SECON<tspan class="cls-29" x="39.34" y="0">D</tspan><tspan x="48.01" y="0">A</tspan><tspan class="cls-16" x="56.02" y="0">R</tspan><tspan x="62.9" y="0">Y</tspan></text><rect class="cls-30" x="137.62" y="267.5" width="36.2" height="36.2"/><rect class="cls-31" x="187.78" y="267.5" width="36.2" height="36.2"/><text class="cls-10" transform="translate(188.05 303.7)">#D32F2F</text><text class="cls-10" transform="translate(137.62 303.7)">#EA8F8F</text><text class="cls-8" transform="translate(137.35 267.5)">LIGHT</text><text class="cls-8" transform="translate(187.78 267.5)">MAIN</text><rect class="cls-32" x="237.93" y="267.5" width="36.2" height="36.2"/><text class="cls-10" transform="translate(238.21 303.7)">#9E2323</text><text class="cls-8" transform="translate(237.93 267.5)"><tspan class="cls-13">D</tspan><tspan x="5.78" y="0">ARK</tspan></text><text class="cls-15" transform="translate(78.51 267.5)">ERROR</text><rect class="cls-33" x="137.62" y="318.86" width="36.2" height="36.2"/><rect class="cls-34" x="187.78" y="318.86" width="36.2" height="36.2"/><text class="cls-10" transform="translate(188.05 355.06)">#33A25F</text><text class="cls-10" transform="translate(137.62 355.06)">#99D1AF</text><text class="cls-8" transform="translate(137.35 318.86)">LIGHT</text><text class="cls-8" transform="translate(187.78 318.86)">MAIN</text><rect class="cls-35" x="237.93" y="318.86" width="36.2" height="36.2"/><text class="cls-10" transform="translate(238.21 355.06)">#006829</text><text class="cls-8" transform="translate(237.93 318.86)"><tspan class="cls-13">D</tspan><tspan x="5.78" y="0">ARK</tspan></text><text class="cls-15" transform="translate(67.16 318.86)">SUCCESS</text><rect class="cls-36" x="137.62" y="370.22" width="36.2" height="36.2"/><rect class="cls-37" x="187.78" y="370.22" width="36.2" height="36.2"/><text class="cls-10" transform="translate(188.05 406.42)">#2979FF</text><text class="cls-10" transform="translate(137.62 406.41)">#7<tspan class="cls-13" x="8.9" y="0">F</tspan><tspan x="12.46" y="0">AFFF</tspan></text><text class="cls-8" transform="translate(137.35 370.22)">LIGHT</text><text class="cls-8" transform="translate(187.78 370.22)">MAIN</text><rect class="cls-38" x="237.93" y="370.22" width="36.2" height="36.2"/><text class="cls-10" transform="translate(238.21 406.42)">#1F5BBF</text><text class="cls-8" transform="translate(237.93 370.22)"><tspan class="cls-13">D</tspan><tspan x="5.78" y="0">ARK</tspan></text><text class="cls-15" transform="translate(87.83 370.22)">INFO</text><rect class="cls-39" x="137.62" y="421.57" width="36.2" height="36.2"/><rect class="cls-40" x="187.78" y="421.57" width="36.2" height="36.2"/><text class="cls-10" transform="translate(188.05 457.77)">#FB8C00</text><text class="cls-10" transform="translate(137.62 457.77)">#FD<tspan class="cls-16" x="14.67" y="0">B</tspan><tspan x="19.26" y="0">A66</tspan></text><text class="cls-8" transform="translate(137.35 421.57)">LIGHT</text><text class="cls-8" transform="translate(187.78 421.57)">MAIN</text><rect class="cls-41" x="237.93" y="421.57" width="36.2" height="36.2"/><text class="cls-10" transform="translate(238.21 457.77)">#BC6900</text><text class="cls-8" transform="translate(237.93 421.57)"><tspan class="cls-13">D</tspan><tspan x="5.78" y="0">ARK</tspan></text><text class="cls-15" transform="translate(58.36 421.57)"><tspan class="cls-42">W</tspan><tspan x="11.46" y="0">ARNING</tspan></text><rect class="cls-43" x="137.62" y="472.93" width="36.2" height="36.2"/><rect class="cls-44" x="187.78" y="472.93" width="36.2" height="36.2"/><text class="cls-10" transform="translate(188.05 509.13)">#E9C939</text><text class="cls-10" transform="translate(137.62 509.13)">#F4E49C</text><text class="cls-8" transform="translate(137.35 472.93)">LIGHT</text><text class="cls-8" transform="translate(187.78 472.93)">MAIN</text><rect class="cls-45" x="237.93" y="472.93" width="36.2" height="36.2"/><text class="cls-10" transform="translate(238.21 509.13)">#AA8C06</text><text class="cls-8" transform="translate(237.93 472.93)"><tspan class="cls-13">D</tspan><tspan x="5.78" y="0">ARK</tspan></text><text class="cls-15" transform="translate(67.36 472.93)"><tspan class="cls-16">B</tspan><tspan x="6.89" y="0">A</tspan><tspan class="cls-46" x="14.89" y="0">N</tspan><tspan x="24.01" y="0">A</tspan><tspan class="cls-46" x="32.02" y="0">N</tspan><tspan x="41.14" y="0">A</tspan></text><rect class="cls-2" x="137.62" y="528.72" width="36.2" height="36.2"/><rect class="cls-47" x="187.78" y="528.72" width="36.2" height="36.2"/><text class="cls-48" transform="translate(188.05 564.92)">#030A10.54</text><text class="cls-10" transform="translate(137.62 564.92)">#030A10</text><text class="cls-8" transform="translate(137.35 528.72)">PRIMA<tspan class="cls-49" x="24.01" y="0">R</tspan><tspan x="28.6" y="0">Y</tspan></text><text class="cls-8" transform="translate(187.78 528.72)">SECON<tspan class="cls-50" x="26.22" y="0">D</tspan><tspan x="32.01" y="0">A</tspan><tspan class="cls-16" x="37.34" y="0">R</tspan><tspan x="41.94" y="0">Y</tspan></text><rect class="cls-51" x="237.93" y="528.72" width="36.2" height="36.2"/><text class="cls-48" transform="translate(238.21 564.92)">#030A10.38</text><text class="cls-8" transform="translate(237.93 528.72)">DISABLED</text><rect class="cls-51" x="288.09" y="528.72" width="36.2" height="36.2"/><text class="cls-48" transform="translate(288.36 564.92)">#030A10.38</text><text class="cls-8" transform="translate(288.09 528.72)">HINT</text><text class="cls-15" transform="translate(89.83 528.72)">TEXT</text><rect class="cls-22" x="282.3" y="12.14" width="63.28" height="12.24" rx="6.12"/><rect class="cls-24" x="285.35" y="14.19" width="57.16" height="8.15" rx="4.07"/><rect class="cls-27" x="326.76" y="14.63" width="14.74" height="7.26" rx="3.63"/><circle class="cls-52" cx="334.02" cy="18.26" r="2.27"/><path class="cls-52" d="M298.87,20.45h-1.26c0-.12,0-.3,0-.54v-2a.9.9,0,0,0-.16-.55.63.63,0,0,0-.49-.17,1.92,1.92,0,0,0-.51.08,2.81,2.81,0,0,0-.55.23v.07c0,.05,0,.1,0,.15s0,.4,0,.59,0,.4,0,.61,0,.63,0,.93,0,.49,0,.59h-1.25V17.92c0-.1,0-.2,0-.3a.7.7,0,0,0-.11-.23.45.45,0,0,0-.19-.14.78.78,0,0,0-.3-.05,1.5,1.5,0,0,0-.53.1q-.27.11-.54.24v2.21c0,.35,0,.58,0,.7h-1.25v-.68c0-.32,0-.75,0-1.29v-1c0-.38,0-.79,0-1.22H293v.39h0a5.79,5.79,0,0,1,.75-.32,2.56,2.56,0,0,1,.85-.17,1.65,1.65,0,0,1,.7.14,1.07,1.07,0,0,1,.45.39h0a4.65,4.65,0,0,1,.88-.37,2.82,2.82,0,0,1,.91-.16,1.38,1.38,0,0,1,1,.35,1.28,1.28,0,0,1,.37.95c0,.32,0,.58,0,.78s0,.4,0,.58,0,.63,0,.94S298.87,20.33,298.87,20.45Z"/><path class="cls-52" d="M304.49,18.38a2.14,2.14,0,0,1-.19.9,2,2,0,0,1-.57.74,2.16,2.16,0,0,1-.73.4,2.65,2.65,0,0,1-.9.14,2.6,2.6,0,0,1-.89-.14,2.26,2.26,0,0,1-.75-.4,2.1,2.1,0,0,1-.56-.73,2.21,2.21,0,0,1-.2-.92,2,2,0,0,1,.71-1.58,2.25,2.25,0,0,1,.75-.44,2.85,2.85,0,0,1,.94-.15,3,3,0,0,1,.92.14,2.33,2.33,0,0,1,.75.43,2.07,2.07,0,0,1,.54.72A2.14,2.14,0,0,1,304.49,18.38Zm-1.25,0a1.65,1.65,0,0,0-.1-.58,1.07,1.07,0,0,0-.32-.46.88.88,0,0,0-.33-.18,1.23,1.23,0,0,0-.39-.06,1.33,1.33,0,0,0-.42.06,1.16,1.16,0,0,0-.34.22,1.13,1.13,0,0,0-.29.43,1.72,1.72,0,0,0-.1.55,1.54,1.54,0,0,0,.11.58,1.15,1.15,0,0,0,.33.46.88.88,0,0,0,.32.16,1.21,1.21,0,0,0,.38.06,1.16,1.16,0,0,0,.42-.07.88.88,0,0,0,.33-.18,1.19,1.19,0,0,0,.3-.45A1.4,1.4,0,0,0,303.24,18.4Z"/><path class="cls-52" d="M309.43,18.39h-3.15a1,1,0,0,0,.2.57,1.29,1.29,0,0,0,.58.42,2.34,2.34,0,0,0,.59.16,4.68,4.68,0,0,0,.67.05h.8l-.13.89-.3,0h-.51a5.43,5.43,0,0,1-1.34-.15,2.82,2.82,0,0,1-1-.47,1.94,1.94,0,0,1-.57-.68,1.86,1.86,0,0,1-.21-.87,2.06,2.06,0,0,1,.16-.84,1.93,1.93,0,0,1,.51-.7,2,2,0,0,1,.73-.43,2.68,2.68,0,0,1,.89-.15,2.49,2.49,0,0,1,.85.13,1.78,1.78,0,0,1,.63.37,1.84,1.84,0,0,1,.47.72A2.91,2.91,0,0,1,309.43,18.39Zm-1.19-.55a1,1,0,0,0-.29-.63.92.92,0,0,0-.67-.24,1,1,0,0,0-1,.87Z"/><path class="cls-52" d="M313.51,17.23l-.85.26c-.31.1-.69.25-1.15.45v1.84c0,.37,0,.59,0,.67h-1.25v-.64c0-.34,0-.77,0-1.28,0-.24,0-.58,0-1V16.3h1.23v.6h0c.28-.15.58-.3.91-.44a4.84,4.84,0,0,1,.77-.27Z"/><path class="cls-52" d="M317.76,18.29v1.49c0,.39,0,.61,0,.67l-.58,0q-.5,0-1,0a7,7,0,0,1-.89-.06,3.46,3.46,0,0,1-.78-.18,1.58,1.58,0,0,1-.63-.44.93.93,0,0,1-.23-.61,1,1,0,0,1,.25-.68,1.71,1.71,0,0,1,.77-.46,6.07,6.07,0,0,1,.86-.18c.35-.05.68-.08,1-.1a.59.59,0,0,0-.15-.35.73.73,0,0,0-.39-.22,2.33,2.33,0,0,0-.41-.07,3.84,3.84,0,0,0-.52,0h-.48l-.37,0,.1-.91h.83a5.17,5.17,0,0,1,1.22.12,2,2,0,0,1,.82.39,1.38,1.38,0,0,1,.45.61A2.44,2.44,0,0,1,317.76,18.29Zm-1.19.74v-.65a4.93,4.93,0,0,0-.53.05,2.62,2.62,0,0,0-.61.13.92.92,0,0,0-.38.21.54.54,0,0,0,0,.7.79.79,0,0,0,.36.2,1.35,1.35,0,0,0,.36.07,3.13,3.13,0,0,0,.46,0h.34V19Z"/><path class="cls-52" d="M323,18.39h-3.14a.92.92,0,0,0,.2.57,1.23,1.23,0,0,0,.58.42,2.23,2.23,0,0,0,.59.16,4.68,4.68,0,0,0,.67.05h.8l-.13.89-.3,0h-.51a5.58,5.58,0,0,1-1.35-.15,3,3,0,0,1-1-.47,2.18,2.18,0,0,1-.57-.68,2,2,0,0,1-.2-.87,2.06,2.06,0,0,1,.16-.84,1.93,1.93,0,0,1,.51-.7,2,2,0,0,1,.73-.43,2.64,2.64,0,0,1,.89-.15,2.49,2.49,0,0,1,.85.13,1.78,1.78,0,0,1,.63.37,1.82,1.82,0,0,1,.46.72A2.91,2.91,0,0,1,323,18.39Zm-1.18-.55a1,1,0,0,0-.29-.63.92.92,0,0,0-.67-.24,1,1,0,0,0-1,.87Z"/></svg>