<svg xmlns="http://www.w3.org/2000/svg" id="moerae" viewBox="0 0 288 74">
    <defs>
        <style>
            .cls-1{fill:#303040;}.cls-2{fill:#fefefe;}.cls-3{fill:#f6f6f6;}.cls-4{fill:#6eb5cb;}.cls-5{fill:#3f3d56;}
        </style>
    </defs>
    <title>
        moerae-logo-reverse-dark
    </title>
    <rect width="288" height="74" class="cls-1"/>
    <rect width="257.59" height="49.84" x="15.2" y="12.08" class="cls-2" rx="24.92"/>
    <path d="M44.24,20.41H243.75A16.58,16.58,0,0,1,260.34,37h0a16.59,16.59,0,0,1-16.59,16.59H44.24A16.59,16.59,0,0,1,27.65,37h0A16.58,16.58,0,0,1,44.24,20.41Z" class="cls-3"/>
    <rect width="59.98" height="29.53" x="196.2" y="22.23" class="cls-4" rx="14.76"/>
    <circle cx="225.73" cy="37" r="9.23" class="cls-2">
        <animate attributeName="cx" begin="0s" dur="3.6s" keySplines=".8 0 .5 1; 0 0 0.6 1" keyTimes="0;0.4;0.55;0.84;0.9;1" repeatCount="indefinite" values="225.73;225.73;240;210;233;225.73"/>
        <animate attributeName="opacity" begin="0s" dur="1.5s" keyTimes="0;1" repeatCount="indefinite" values="0.1;1"/>
        <animateTransform attributeName="transform" begin="0s" dur="10.5s" keyTimes="0;0.85;1" repeatCount="indefinite" type="scale" values="1;1;0.19"/>
    </circle>
    <path d="M82.65,45.9h-5.1c0-.48,0-1.21,0-2.2s0-2.14,0-3.44c0-.79,0-1.64,0-2.56s0-1.6,0-2.08a3.62,3.62,0,0,0-.63-2.24,2.52,2.52,0,0,0-2-.7,7.11,7.11,0,0,0-2,.33,12.72,12.72,0,0,0-2.26.91s0,.13,0,.32,0,.38,0,.59c0,.82,0,1.62,0,2.42s0,1.63,0,2.49c0,1.3,0,2.55,0,3.76s0,2,0,2.4h-5.1c0-.31,0-1,0-2s0-2.24,0-3.63c0-.68,0-1.5,0-2.47s0-1.69,0-2.17a5.8,5.8,0,0,0-.16-1.22,2.29,2.29,0,0,0-.45-.94,1.88,1.88,0,0,0-.75-.59A3.34,3.34,0,0,0,63,32.68a6.42,6.42,0,0,0-2.15.41,17.22,17.22,0,0,0-2.2,1c0,.15,0,.86,0,2.13s0,2.26,0,3c0,1.19,0,2.49,0,3.91s0,2.36,0,2.83h-5.1c0-.57,0-1.49,0-2.77s0-3,0-5.24c0-1,0-2.34,0-3.89s0-3.22,0-5h5l0,1.57.05,0a21.52,21.52,0,0,1,3-1.33,10.12,10.12,0,0,1,3.47-.69,6.46,6.46,0,0,1,2.83.57,4.49,4.49,0,0,1,1.84,1.6h0a19.37,19.37,0,0,1,3.57-1.53,12.32,12.32,0,0,1,3.71-.64A5.57,5.57,0,0,1,81.17,30a5.11,5.11,0,0,1,1.48,3.85c0,1.31,0,2.38,0,3.2s0,1.61,0,2.35c0,1.29,0,2.56,0,3.82S82.65,45.4,82.65,45.9Z" class="cls-5"/>
    <path d="M105.56,37.49a8.8,8.8,0,0,1-.78,3.65,8.42,8.42,0,0,1-2.31,3,9.25,9.25,0,0,1-3,1.65,11.83,11.83,0,0,1-3.67.55,12,12,0,0,1-3.62-.55,9.23,9.23,0,0,1-3-1.65,8.45,8.45,0,0,1-2.29-3,8.85,8.85,0,0,1-.8-3.72A8.17,8.17,0,0,1,88.93,31,9.19,9.19,0,0,1,92,29.22a11.45,11.45,0,0,1,3.79-.62,11.92,11.92,0,0,1,3.77.58,9.28,9.28,0,0,1,3.06,1.74,8.54,8.54,0,0,1,2.19,2.93A8.8,8.8,0,0,1,105.56,37.49Zm-5.11.06a6.8,6.8,0,0,0-.4-2.33,4.52,4.52,0,0,0-1.31-1.91,4.61,4.61,0,0,0-1.32-.7,5.08,5.08,0,0,0-1.61-.26,4.89,4.89,0,0,0-1.7.27,4.24,4.24,0,0,0-1.39.86,4.52,4.52,0,0,0-1.16,1.77,6.23,6.23,0,0,0-.4,2.22,6.48,6.48,0,0,0,.42,2.39,4.37,4.37,0,0,0,1.36,1.84,3.48,3.48,0,0,0,1.29.69,5.37,5.37,0,0,0,1.57.22,5.19,5.19,0,0,0,1.68-.27,3.58,3.58,0,0,0,1.34-.76,4.53,4.53,0,0,0,1.23-1.8A6.16,6.16,0,0,0,100.45,37.55Z" class="cls-5"/>
    <path d="M125.64,37.54H112.82a4.11,4.11,0,0,0,.84,2.32A5.32,5.32,0,0,0,116,41.57a10,10,0,0,0,2.38.63,17.87,17.87,0,0,0,2.72.19c.86,0,1.55,0,2.07,0l1.2-.06L123.86,46l-1.21.07c-.54,0-1.23,0-2.08,0a22.87,22.87,0,0,1-5.48-.6,11.12,11.12,0,0,1-4.15-1.93,8.14,8.14,0,0,1-2.32-2.77,7.57,7.57,0,0,1-.83-3.52,8.83,8.83,0,0,1,.63-3.42A8.59,8.59,0,0,1,110.53,31a7.89,7.89,0,0,1,3-1.73,10.89,10.89,0,0,1,3.62-.62,10.32,10.32,0,0,1,3.47.54,7.48,7.48,0,0,1,2.58,1.51A7.4,7.4,0,0,1,125,33.57,11.78,11.78,0,0,1,125.64,37.54Zm-4.84-2.26a4.11,4.11,0,0,0-1.17-2.55,3.72,3.72,0,0,0-2.73-1,4.25,4.25,0,0,0-2.8.92,4.45,4.45,0,0,0-1.44,2.6Z" class="cls-5"/>
    <path d="M142.25,32.8c-1.06.29-2.22.64-3.46,1.05s-2.79,1-4.66,1.84c0,.3,0,.81,0,1.53s0,1.46,0,2.24c0,1,0,2.23,0,3.74s0,2.4,0,2.7h-5.1c0-.33,0-1.2,0-2.59s0-3.13,0-5.21q0-1.49,0-4.08c0-1.73,0-3.39,0-5h5v2.42h0a36.72,36.72,0,0,1,3.71-1.79,21.53,21.53,0,0,1,3.13-1.11Z" class="cls-5"/>
    <path d="M159.56,37.12c0,2.48,0,4.51,0,6.07s0,2.46,0,2.71l-2.36.15c-1.37.09-2.71.13-4,.13a30.87,30.87,0,0,1-3.62-.23,12.17,12.17,0,0,1-3.17-.73,6.25,6.25,0,0,1-2.59-1.78,3.81,3.81,0,0,1-.91-2.52,4.09,4.09,0,0,1,1-2.74A6.86,6.86,0,0,1,147,36.32a19.6,19.6,0,0,1,3.51-.75q2.13-.3,4-.39a2.53,2.53,0,0,0-.58-1.46,3.31,3.31,0,0,0-1.6-.87,10.07,10.07,0,0,0-1.65-.31q-.9-.09-2.13-.09c-.77,0-1.42,0-1.94,0l-1.55.06.45-3.68,1.16-.05q.78,0,2.19,0a22.22,22.22,0,0,1,5,.47,8.53,8.53,0,0,1,3.32,1.57A6.08,6.08,0,0,1,159,33.32,10.42,10.42,0,0,1,159.56,37.12Zm-4.85,3V37.49q-.72,0-2.13.18a11.47,11.47,0,0,0-2.52.55,3.22,3.22,0,0,0-1.52.86,2.07,2.07,0,0,0,0,2.83,3.48,3.48,0,0,0,1.48.83,7.52,7.52,0,0,0,1.46.3c.53.05,1.16.08,1.87.08h.6c.22,0,.47,0,.76,0V40.15Z" class="cls-5"/>
    <path d="M180.75,37.54H167.93a4.11,4.11,0,0,0,.84,2.32,5.32,5.32,0,0,0,2.37,1.71,10,10,0,0,0,2.38.63,17.87,17.87,0,0,0,2.72.19c.86,0,1.55,0,2.07,0l1.2-.06L179,46l-1.21.07c-.54,0-1.23,0-2.08,0a22.73,22.73,0,0,1-5.47-.6,11.09,11.09,0,0,1-4.16-1.93,8.14,8.14,0,0,1-2.32-2.77,7.57,7.57,0,0,1-.83-3.52,8.83,8.83,0,0,1,.63-3.42A8.59,8.59,0,0,1,165.64,31a7.89,7.89,0,0,1,3-1.73,10.89,10.89,0,0,1,3.62-.62,10.32,10.32,0,0,1,3.47.54,7.48,7.48,0,0,1,2.58,1.51,7.4,7.4,0,0,1,1.88,2.92A11.78,11.78,0,0,1,180.75,37.54Zm-4.84-2.26a4.11,4.11,0,0,0-1.17-2.55,3.72,3.72,0,0,0-2.73-1,4.25,4.25,0,0,0-2.8.92,4.45,4.45,0,0,0-1.44,2.6Z" class="cls-5"/>
</svg>
